<?xml version="1.0" encoding="UTF-8" standalone="no"?>
<!-- Created with Inkscape (http://www.inkscape.org/) -->

<svg
   xmlns:dc="http://purl.org/dc/elements/1.1/"
   xmlns:cc="http://creativecommons.org/ns#"
   xmlns:rdf="http://www.w3.org/1999/02/22-rdf-syntax-ns#"
   xmlns:svg="http://www.w3.org/2000/svg"
   xmlns="http://www.w3.org/2000/svg"
   xmlns:sodipodi="http://sodipodi.sourceforge.net/DTD/sodipodi-0.dtd"
   xmlns:inkscape="http://www.inkscape.org/namespaces/inkscape"
   width="210mm"
   height="297mm"
   viewBox="0 0 210 297"
   version="1.1"
   id="svg8"
   inkscape:version="0.92.4 (5da689c313, 2019-01-14)"
   sodipodi:docname="logojr.svg">
  <defs
     id="defs2" />
  <sodipodi:namedview
     id="base"
     pagecolor="#ffffff"
     bordercolor="#666666"
     borderopacity="1.0"
     inkscape:pageopacity="0.0"
     inkscape:pageshadow="2"
     inkscape:zoom="0.35"
     inkscape:cx="400"
     inkscape:cy="560"
     inkscape:document-units="mm"
     inkscape:current-layer="layer1"
     showgrid="false"
     inkscape:window-width="1366"
     inkscape:window-height="705"
     inkscape:window-x="-8"
     inkscape:window-y="-8"
     inkscape:window-maximized="1" />
  <metadata
     id="metadata5">
    <rdf:RDF>
      <cc:Work
         rdf:about="">
        <dc:format>image/svg+xml</dc:format>
        <dc:type
           rdf:resource="http://purl.org/dc/dcmitype/StillImage" />
        <dc:title></dc:title>
      </cc:Work>
    </rdf:RDF>
  </metadata>
  <g
     inkscape:label="Capa 1"
     inkscape:groupmode="layer"
     id="layer1">
    <rect
       id="rect3713"
       width="149.67857"
       height="96.005951"
       x="29.482143"
       y="79.285713"
       style="stroke-width:0.26458332;fill:#000080" />
    <path
       style="fill:#00ffff;stroke-width:2.85714293"
       d="m 112,480.23397 v -180 h 281.42857 281.42857 v 180 180 H 393.42857 112 Z"
       id="path3715"
       inkscape:connector-curvature="0"
       transform="scale(0.26458333)" />
    <path
       style="fill:#00ffff;stroke-width:0.26458332"
       id="path3717"
       d="m 49.771082,99.423973 c 2.101575,0.04592 4.203997,0.02773 6.305902,0.02003 2.490804,0.285416 4.987576,0.512723 7.490698,0.653677 2.023838,0.47576 4.087617,0.64751 6.15755,0.76401 2.142514,0.006 4.091242,1.04623 6.09709,1.68537 1.132928,0.29308 0.598141,0.15407 1.604463,0.41663 0,0 -9.239909,6.32906 -9.239909,6.32906 v 0 c -0.975215,-0.30246 -0.44627,-0.13929 -1.587106,-0.48861 -1.925203,-0.67077 -3.826034,-1.50052 -5.907201,-1.46927 -2.072939,-0.1535 -4.127844,-0.3971 -6.175282,-0.75418 -2.486324,-0.19491 -4.964893,-0.51524 -7.458991,-0.58423 -2.120296,-0.008 -4.241064,-0.0252 -6.361049,0.02 0,0 9.073835,-6.592527 9.073835,-6.592527 z"
       inkscape:connector-curvature="0" />
    <path
       style="fill:#000080;stroke-width:0.26458332"
       id="path3721"
       d="m 53.550846,95.644212 c 2.276403,0.310923 4.530413,0.746554 6.805268,1.068975 3.194971,0.559972 6.313826,1.463389 9.498013,2.075807 2.476709,0.468228 4.991282,0.607801 7.505411,0.662763 2.248487,0.03719 4.497295,0.01175 6.745912,0.0083 1.875025,-0.008 3.750035,-0.01884 5.625071,-0.02453 1.666258,-0.139022 3.266958,0.124463 4.896117,0.415899 1.176993,0.205354 2.370849,0.264324 3.562519,0.307734 0,0 -9.090199,6.53622 -9.090199,6.53622 v 0 c -1.221584,-0.0757 -2.441205,-0.18651 -3.644107,-0.42187 -1.582629,-0.27512 -3.161172,-0.32843 -4.767339,-0.26662 -1.860894,-0.002 -3.72179,-0.007 -5.582687,-0.004 -2.252493,0.008 -4.505499,0.008 -6.757466,-0.046 -2.532996,-0.10197 -5.056849,-0.32094 -7.538913,-0.86649 -3.166883,-0.66599 -6.291702,-1.54812 -9.500936,-1.99998 -2.268207,-0.33626 -4.533979,-0.77855 -6.830502,-0.8536 0,0 9.073838,-6.592527 9.073838,-6.592527 z"
       inkscape:connector-curvature="0" />
    <path
       style="fill:#000080;stroke-width:0.26458332"
       id="path3723"
       d="m 83.019198,105.90141 c 1.096399,2.04664 1.776963,4.26614 2.56213,6.44078 0.901715,1.84968 1.353327,3.80569 1.578723,5.8374 0.05388,2.04037 0.248407,4.01034 0.709012,5.99472 0.520809,2.12408 0.766241,4.30104 0.92455,6.47818 0.112233,2.22448 0.07841,4.45259 0.06673,6.67886 -0.05732,2.2803 0.155085,4.57353 -0.122211,6.84113 -0.388141,1.90628 -1.806366,3.12976 -3.184282,4.3674 -1.328856,1.32176 -2.516002,2.72801 -4.019748,3.85725 -4.405768,2.84304 -0.789152,0.53522 -11.60879,6.69043 -1.230619,0.70009 -2.436058,1.27684 -3.789828,1.69242 -1.551937,0.2813 -3.039872,0.73792 -4.606205,0.95985 -1.752994,0.20236 -3.522564,0.20285 -5.284925,0.19738 -2.210623,-0.0113 -4.421285,-2.6e-4 -6.631911,0.006 -1.902611,0.11848 -3.639693,-0.63521 -5.327412,-1.40886 -1.65803,-0.94519 -3.218137,-2.05044 -4.894376,-2.9621 -1.155687,-0.84408 -2.506236,-1.33776 -3.634507,-2.21747 -0.634894,-0.7186 -1.274384,-1.42918 -1.85666,-2.19093 0,0 9.651232,-5.7508 9.651232,-5.7508 v 0 c 0.531315,0.66871 1.074211,1.33201 1.685478,1.92975 1.138515,0.76785 2.387962,1.35266 3.510933,2.14676 1.613676,0.96322 3.177347,2.01005 4.856351,2.86202 1.603314,0.71651 3.257769,1.16906 5.034303,1.03626 2.20208,0.0122 4.404477,0.0334 6.606424,-0.004 1.745324,-0.0426 3.500363,-0.0604 5.224145,-0.37054 1.504384,-0.29827 2.999475,-0.67448 4.472038,-1.09693 0.904277,-0.36176 1.755529,-0.77489 2.617821,-1.22822 0.342398,-0.18001 1.359363,-0.73841 1.026629,-0.54111 -11.791151,6.9918 -10.80389,6.39406 -7.412689,4.30496 1.632779,-0.9548 2.826108,-2.24073 4.052311,-3.66321 1.202698,-1.21062 2.774924,-2.13039 3.500631,-3.73635 0.536659,-2.16757 0.09685,-4.47215 0.256439,-6.68764 -0.01066,-2.1961 -0.01447,-4.39316 -0.09423,-6.58805 -0.105026,-2.12129 -0.288533,-4.24672 -0.812022,-6.31202 -0.171495,-0.66499 -0.389654,-1.3193 -0.519416,-1.99367 -0.262044,-1.36181 -0.07315,-2.76379 -0.253688,-4.13475 -0.202377,-1.95022 -0.60098,-3.83113 -1.463501,-5.60966 -0.731707,-2.16342 -1.363223,-4.38778 -2.589133,-6.3381 0,0 9.769658,-5.48692 9.769658,-5.48692 z"
       inkscape:connector-curvature="0" />
    <path
       style="fill:#000080;stroke-width:0.26458332"
       id="path3725"
       d="m 123.97581,100.95873 c 2.33967,1.87177 3.42351,4.59503 4.20945,7.39504 0.71657,2.8471 0.69581,5.80002 0.74692,8.71544 0.005,2.87184 -0.25098,5.75378 -0.61247,8.60251 -0.56951,2.42975 -0.95596,4.91196 -1.6591,7.30777 -0.55805,1.76443 -1.17364,3.5012 -1.9303,5.19023 -0.49522,1.27061 -1.1473,2.46182 -1.50169,3.78254 -0.18237,1.49505 -0.46251,2.96995 -0.73463,4.4513 -0.24682,1.42229 -0.29257,2.86712 -0.32468,4.30695 -0.0225,1.50489 -0.0171,3.01003 -0.0152,4.51504 0,0 -9.97132,5.08237 -9.97132,5.08237 v 0 c -0.002,-1.51103 -0.008,-3.02211 0.004,-4.53311 0.0192,-1.48729 0.043,-2.97907 0.24393,-4.45529 0.23579,-1.50434 0.6885,-2.96307 0.7028,-4.49643 0.25594,-1.43692 0.83721,-2.68159 1.43279,-3.99744 0.7378,-1.68524 1.51681,-3.34161 2.02579,-5.11617 0.86301,-2.30833 1.09068,-4.78505 1.78859,-7.14768 0.43482,-2.79326 0.65715,-5.63866 0.70612,-8.46265 -0.0116,-2.83033 -0.0226,-5.6876 -0.6142,-8.46867 -0.68432,-2.63303 -1.64447,-5.14644 -3.99419,-6.73258 0,0 9.49747,-5.93917 9.49747,-5.93917 z"
       inkscape:connector-curvature="0" />
    <path
       style="fill:#000080;stroke-width:0.26458332"
       id="path3727"
       d="m 122.15959,105.24633 c 0.47623,-0.74373 0.61111,-1.03914 1.25073,-1.67936 3.14906,-3.15201 12.25134,-7.542369 13.73377,-8.387104 1.7785,-0.770332 3.57161,-1.385544 5.49256,-1.659594 1.56797,-0.170582 3.14814,-0.162406 4.72313,-0.151014 2.15657,0.02588 4.31333,0.02932 6.47003,0.03 1.81463,0.140542 3.74811,-0.344 5.48029,0.277064 1.33079,0.787757 2.22619,1.925548 2.89359,3.296756 0.4948,1.276106 0.97673,2.555457 1.44987,3.840372 0.57795,1.55433 0.68758,3.20426 0.77578,4.84339 0.12187,1.59173 -0.0304,3.19807 0.13434,4.78502 0.30423,1.52174 0.4894,2.99796 0.22265,4.53283 -0.42239,1.81547 -1.32138,3.21506 -2.68124,4.45221 -5.2331,3.82547 -9.28429,6.0897 -15.00997,7.36983 -1.59874,0.49746 -3.10886,1.1895 -4.74494,1.56525 -1.76853,0.46335 -3.63153,0.58081 -5.36303,1.15431 -1.85807,0.44876 -3.52857,1.37775 -5.37257,1.86087 -0.2373,0.0928 -0.48605,0.16054 -0.71189,0.27855 -0.44309,0.30182 -0.70821,0.50461 -1.18751,0.74444 -0.20311,0.10163 -0.82208,0.38369 -0.62582,0.2694 12.64035,-7.36025 11.85545,-6.88764 8.55897,-4.8739 -4.09369,2.69924 -8.18773,5.56203 -12.84094,7.1451 -0.93427,0.23759 -0.46068,0.13362 -1.42107,0.31067 0,0 8.90599,-6.78896 8.90599,-6.78896 v 0 c 0.90429,-0.25971 0.45909,-0.11508 1.33584,-0.43309 0.41081,-0.17297 0.8319,-0.32271 1.23429,-0.51444 0.17279,-0.0823 0.66741,-0.37501 0.50228,-0.27825 -17.29556,10.13475 -10.90199,7.08498 -8.1904,4.58416 4.40242,-2.44209 8.53148,-5.58491 13.29518,-7.28302 1.77586,-0.61291 3.50239,-1.36857 5.33973,-1.79839 1.80407,-0.39913 3.62625,-0.71592 5.41491,-1.18652 1.58891,-0.48965 3.11791,-1.16391 4.74399,-1.53585 4.73381,-1.27603 11.40574,-4.90098 -4.21838,3.56574 1.42573,-0.99362 2.42773,-2.05308 2.95452,-3.74934 0.4072,-1.41302 0.29968,-2.75326 -0.0568,-4.1774 -0.24214,-1.61287 -0.0391,-3.25563 -0.14483,-4.88158 -0.0631,-1.52617 -0.13742,-3.06978 -0.64413,-4.52626 -0.462,-1.25174 -0.95283,-2.49127 -1.39921,-3.74769 -0.50521,-1.07116 -1.21969,-2.0378 -2.36628,-2.46993 -1.74269,-0.204139 -3.51467,-0.0114 -5.26528,-0.09349 -2.16863,-0.0074 -4.33739,-0.01908 -6.50596,0.0039 -1.54117,0.02276 -3.09218,0.02844 -4.6133,0.309956 -1.8194,0.39365 -3.55344,1.06328 -5.22756,1.87531 2.80975,-1.64044 5.62098,-3.278341 8.42926,-4.921293 0.37326,-0.218371 -0.75757,0.418177 -1.12418,0.647542 -1.24526,0.779086 -2.49393,1.593061 -3.40302,2.768401 0,0 -10.22337,4.62537 -10.22337,4.62537 z"
       inkscape:connector-curvature="0" />
    <path
       style="fill:#000080;stroke-width:0.26458332"
       id="path3729"
       d="m 132.18808,129.23128 c 1.95827,0.77115 3.80054,1.76201 5.64134,2.77655 2.06902,1.02183 4.06877,2.13959 6.04704,3.32835 1.88786,0.89806 3.63699,1.99347 5.38303,3.12855 1.63046,1.46146 3.56605,2.51045 5.37188,3.7297 2.03253,1.54576 3.60157,3.55807 5.5573,5.19475 1.87388,1.8951 3.90358,3.61554 5.36292,5.86549 0.94447,1.57642 2.67608,2.27036 3.83813,3.65752 0.13431,0.22469 0.26863,0.44938 0.40295,0.67407 0,0 -9.69781,5.6125 -9.69781,5.6125 v 0 c -0.0997,-0.17112 -0.19948,-0.34225 -0.29921,-0.51338 -1.19528,-1.37999 -2.99249,-2.14195 -3.86674,-3.82149 -1.35206,-2.1864 -3.31785,-3.83224 -5.13627,-5.62108 -1.86815,-1.65801 -3.52767,-3.54039 -5.51968,-5.05856 -1.82256,-1.20818 -3.72863,-2.30048 -5.42252,-3.69488 -1.69648,-1.15854 -3.47458,-2.15646 -5.29043,-3.11847 -1.98407,-1.16114 -4.00187,-2.23785 -6.05251,-3.27623 -1.81497,-0.97624 -3.61875,-1.97939 -5.61049,-2.55949 0,0 9.29107,-6.3039 9.29107,-6.3039 z"
       inkscape:connector-curvature="0" />
  </g>
</svg>
